<?xml version="1.0" standalone="no"?>
<!DOCTYPE svg PUBLIC "-//W3C//DTD SVG 20010904//EN"
 "http://www.w3.org/TR/2001/REC-SVG-20010904/DTD/svg10.dtd">
<svg version="1.0" xmlns="http://www.w3.org/2000/svg"
 width="314.000000pt" height="314.000000pt" viewBox="0 0 314.000000 314.000000"
 preserveAspectRatio="xMidYMid meet">
<metadata>
Created by potrace 1.14, written by Peter Selinger 2001-2017
</metadata>
<g transform="translate(0.000000,314.000000) scale(0.100000,-0.100000)"
fill="#000000" stroke="none">
<path d="M388 3119 c-129 -30 -255 -139 -320 -274 -71 -148 -69 -118 -66
-1341 l3 -1089 22 -66 c55 -162 190 -285 354 -324 95 -22 2272 -22 2367 0 93
22 159 60 232 134 70 71 112 145 132 233 18 82 18 2231 0 2313 -38 169 -149
316 -290 383 l-77 37 -1160 2 c-653 0 -1176 -3 -1197 -8z m2036 -549 c62 -32
139 -116 162 -177 16 -43 18 -91 21 -437 2 -214 5 -391 6 -393 2 -2 16 -4 31
-5 30 -3 60 -28 33 -28 -9 0 -19 5 -22 10 -11 19 -35 10 -36 -12 -1 -21 -2
-21 -13 5 l-12 28 -348 -1 c-300 0 -351 -3 -372 -16 -29 -20 -31 -50 -4 -57
11 -3 18 -1 15 3 -3 5 -2 11 2 13 5 3 9 -36 11 -86 2 -57 7 -94 14 -99 7 -4 9
-10 5 -15 -15 -14 -26 21 -33 99 -4 43 -10 75 -15 72 -5 -3 -29 17 -53 43
l-45 48 -396 0 -397 0 -29 -33 -29 -32 -29 32 -29 33 -171 3 -171 3 0 359 c0
228 4 378 11 412 19 87 55 144 130 201 76 58 43 56 914 54 l800 -2 49 -25z
m-539 -1050 c-10 -11 -21 -18 -23 -15 -6 6 31 44 37 39 2 -2 -4 -13 -14 -24z
m765 5 c0 -8 -4 -15 -10 -15 -5 0 -10 7 -10 15 0 8 5 15 10 15 6 0 10 -7 10
-15z m80 -45 c10 -30 11 -43 3 -48 -6 -4 -15 -20 -19 -36 -5 -21 -4 -27 5 -22
6 4 11 13 11 21 0 8 5 17 10 20 6 4 10 -7 10 -25 0 -17 -4 -29 -9 -26 -11 7
-22 -62 -14 -93 4 -16 2 -22 -5 -18 -5 4 -12 1 -15 -5 -3 -7 -4 32 -3 87 3
105 -5 153 -26 167 -10 5 -8 8 5 8 9 0 17 5 17 11 0 22 17 -2 30 -41z m-150
10 c12 -8 9 -10 -12 -10 -16 0 -28 5 -28 10 0 13 20 13 40 0z m83 -7 c-7 -2
-19 -2 -25 0 -7 3 -2 5 12 5 14 0 19 -2 13 -5z m-197 -23 c15 0 38 -12 55 -29
72 -73 -5 -197 -93 -150 -22 12 -49 -3 -29 -15 6 -4 11 -1 11 6 0 8 5 6 11 -5
6 -10 8 -21 5 -24 -3 -4 -6 -1 -6 6 0 9 -5 9 -21 0 -17 -9 -20 -8 -14 3 4 7
-7 -3 -24 -22 -17 -19 -31 -42 -31 -50 0 -8 10 0 21 18 12 18 24 30 27 28 3
-3 -7 -24 -22 -46 -16 -24 -27 -56 -28 -82 -3 -37 0 -43 21 -48 14 -3 26 -11
29 -18 3 -9 -15 -12 -62 -12 -36 0 -69 0 -72 1 -4 0 -11 -5 -16 -13 -6 -9 -8
-8 -6 7 4 25 16 35 46 35 20 0 22 4 22 61 0 57 -10 90 -34 115 -21 21 -91 107
-99 121 -5 8 -6 17 -3 21 4 3 56 4 116 3 l110 -3 0 25 c0 16 10 33 28 46 18
13 22 20 12 21 -9 0 -21 -5 -27 -11 -9 -9 -11 -7 -6 9 4 17 9 19 30 11 13 -5
36 -9 49 -9z m74 1 c0 -5 -9 -7 -20 -4 -11 3 -20 7 -20 9 0 2 9 4 20 4 11 0
20 -4 20 -9z m-1120 -106 l65 -85 85 0 c93 0 114 -7 108 -36 -3 -17 -14 -19
-96 -22 l-92 -3 -67 -84 c-40 -52 -73 -85 -85 -85 -10 0 -18 2 -18 4 0 2 14
36 30 74 17 39 30 76 30 81 0 19 -83 12 -110 -9 -27 -21 -60 -26 -60 -10 0 6
7 22 16 35 14 22 14 26 0 47 -33 47 -6 66 41 28 27 -21 113 -29 113 -10 0 6
-13 40 -30 77 -35 77 -36 83 -12 83 10 0 44 -35 82 -85z m750 41 c0 -2 -7 -7
-16 -10 -8 -3 -12 -2 -9 4 6 10 25 14 25 6z m37 -2 c-3 -3 -12 -4 -19 -1 -8 3
-5 6 6 6 11 1 17 -2 13 -5z m377 -24 c-7 -32 11 -43 20 -12 3 10 4 7 3 -8 -1
-15 -9 -26 -19 -28 -15 -3 -18 4 -18 37 0 23 4 41 10 41 5 0 7 -13 4 -30z
m-1987 -26 c24 -20 68 -45 96 -56 89 -34 114 -48 126 -74 20 -45 14 -64 -19
-64 -20 0 -30 5 -30 15 0 8 -11 22 -25 31 -31 20 -70 12 -86 -19 -7 -12 -17
-25 -23 -29 -6 -4 -66 -8 -134 -8 -121 0 -123 0 -132 24 -19 51 -87 59 -111
13 -16 -30 -30 -37 -51 -26 -14 8 -18 22 -18 67 0 56 0 57 58 109 l57 52 124
1 124 0 44 -36z m2193 -160 c30 -151 31 -196 4 -173 -8 6 -11 16 -8 21 4 6 10
5 16 -3 7 -10 8 -7 4 11 -4 14 -9 45 -13 70 -3 25 -14 61 -24 80 -15 30 -24
102 -19 150 3 24 7 5 40 -156z m-643 134 c-3 -8 -6 -5 -6 6 -1 11 2 17 5 13 3
-3 4 -12 1 -19z m21 -38 c-16 -24 -31 -15 -18 11 6 11 15 17 20 14 6 -4 5 -14
-2 -25z m370 -13 c0 -20 -4 -23 -32 -19 l-31 5 28 9 c15 6 27 14 27 19 0 5 2
9 4 9 2 0 4 -10 4 -23z m-334 -3 c9 -24 7 -28 -9 -14 -10 9 -15 9 -15 1 0 -6
-5 -11 -10 -11 -6 0 -5 8 2 20 15 24 24 25 32 4z m-224 -40 c0 -21 -4 -33 -10
-29 -5 3 -10 19 -10 36 0 16 5 29 10 29 6 0 10 -16 10 -36z m485 26 c3 -5 1
-10 -4 -10 -6 0 -11 5 -11 10 0 6 2 10 4 10 3 0 8 -4 11 -10z m-525 -30 c0
-26 21 -71 31 -64 4 2 6 -29 4 -70 -7 -129 -56 -115 424 -119 l416 -2 -421 -3
-420 -2 -13 49 c-7 26 -9 61 -6 77 5 19 4 25 -3 16 -6 -10 -11 -1 -16 30 -4
24 -9 58 -12 76 -4 20 -2 32 5 32 6 0 11 -9 11 -20z m298 -2 c-2 -17 1 -22 15
-20 11 2 17 -4 17 -18 0 -11 -4 -20 -10 -20 -5 0 -7 7 -4 15 5 11 2 13 -10 9
-11 -4 -15 -13 -11 -28 4 -15 4 -17 -3 -6 -7 12 -9 50 -3 83 3 19 12 4 9 -15z
m-1894 -34 c22 -22 20 -60 -5 -78 -23 -16 -47 -12 -66 12 -18 22 -16 39 7 62
24 24 43 25 64 4z m394 0 c30 -21 29 -59 -3 -80 -23 -15 -27 -15 -50 0 -32 21
-33 59 -3 80 12 9 25 16 28 16 3 0 16 -7 28 -16z m1632 -49 l-8 -40 -1 36 c0
20 2 39 6 42 11 11 11 4 3 -38z m-98 -39 c2 -25 -1 -31 -24 -37 -16 -4 -28 -3
-28 2 0 5 9 9 20 9 16 0 20 7 20 32 0 38 7 34 12 -6z m98 -20 c0 -11 -19 -15
-25 -6 -3 5 1 10 9 10 9 0 16 -2 16 -4z m462 -110 l4 -35 -427 -1 c-290 0
-430 3 -434 10 -4 7 118 10 402 10 224 0 416 0 426 0 19 0 24 30 5 30 -9 0 -8
4 2 10 8 5 16 10 16 10 1 0 4 -15 6 -34z"/>
<path d="M2706 1480 c8 -43 14 -51 14 -19 0 13 -5 31 -10 39 -7 11 -8 5 -4
-20z"/>
<path d="M2711 1334 c0 -11 3 -14 6 -6 3 7 2 16 -1 19 -3 4 -6 -2 -5 -13z"/>
<path d="M300 1335 c-13 -14 -22 -27 -19 -29 10 -10 329 -18 329 -9 0 6 -17
22 -38 37 -35 24 -46 26 -143 26 -100 0 -107 -1 -129 -25z"/>
</g>
</svg>
